<svg id="Layer_1" data-name="Layer 1" xmlns="http://www.w3.org/2000/svg" viewBox="0 0 765.43 333.79"><title>UIUX ELEMENTS</title><polygon points="56.27 156.7 43.4 156.95 32.28 126.42 32.28 160.54 17.99 160.73 17.99 84.98 35.13 82.33 49.96 124.52 65.61 77.63 86.05 74.47 86.05 159.82 68.88 160.05 68.88 123.43 56.27 156.7"/><path d="M128.33,159.25c-9,.12-16.25-1.09-22-3.6a20.6,20.6,0,0,1-11.53-13,74.27,74.27,0,0,1-3-17.24Q91,115.13,91,94.29l.08-20.6,19.58-3V110.4q0,3.8.25,6.75a31.9,31.9,0,0,0,1.28,6.43,16.23,16.23,0,0,0,2.86,5.73,13.08,13.08,0,0,0,5.21,3.66,18.36,18.36,0,0,0,8.1,1.18,19.94,19.94,0,0,0,8.27-2.08,15.48,15.48,0,0,0,5.39-4.35,19.61,19.61,0,0,0,3-6.38,35.71,35.71,0,0,0,1.33-7c.15-2.06.23-4.48.23-7.24v-42l23.36-3.61V84.78q.1,23.53-.88,35.29a79.84,79.84,0,0,1-3.81,19.72,26.77,26.77,0,0,1-5.72,9.44,25.6,25.6,0,0,1-8.71,6,47.86,47.86,0,0,1-10.43,3,76.19,76.19,0,0,1-12,1"/><path d="M224.8,53.35c7.25-1.12,13.56-1.86,18.89-2.22a70.32,70.32,0,0,1,14.49.36,29.94,29.94,0,0,1,10.37,3.12,16.59,16.59,0,0,1,6.39,6.65,29.16,29.16,0,0,1,3.24,10.22,80.84,80.84,0,0,1,.39,14.3L247.18,89c.16-3.52-1.18-7.2-3.71-8.54a11.21,11.21,0,0,0-5.36-.94c-10.14,0-20.07,1.54-29.71,3.36a8.66,8.66,0,0,0-5,2.2c-1.42,1.47-2.19,4.41-1.15,6.13.78,1.29,2.21,1.44,3.49,1.5,10.21.42,20.73.53,31.55.7,8.23.13,16.9,0,25.32,1.7,7.82,1.6,12.83,5.14,14.93,10.61q2.1,5.61,1.6,16.55A79.14,79.14,0,0,1,277.71,135a27.63,27.63,0,0,1-3.82,9.24,20.21,20.21,0,0,1-6.82,6.6,41.66,41.66,0,0,1-11,4.06,97.82,97.82,0,0,1-15.4,2.31c-5.59.44-12.43.7-20.43.81-5.4.07-10,0-13.82-.1s-7.28-.43-10.49-.86a39.32,39.32,0,0,1-7.83-1.73,18,18,0,0,1-5.42-3,14.65,14.65,0,0,1-3.63-4.19,21.15,21.15,0,0,1-2-5.89,44.64,44.64,0,0,1-.89-7.65q-.14-4,.09-9.64l25-1.54a9,9,0,0,0,.43,3.73c.91,2.15,1.7,3.92,3.59,4.69a10.78,10.78,0,0,0,4.56.48l26.62-1a11.39,11.39,0,0,0,5.2-1,6.36,6.36,0,0,0,3.23-5.1c.21-4.37-5-4.52-7.3-4.54-4.64-.05-9.23,0-13.76-.1q-7.75-.24-15.26-.84-3.72-.3-7.38-.69a70.73,70.73,0,0,1-11.88-2.45,13,13,0,0,1-5-2.4q-1.62-1.42-3.52-3.39a10.68,10.68,0,0,1-2.64-4.55,47.34,47.34,0,0,1-1.26-6,39,39,0,0,1-.35-7.44,73.22,73.22,0,0,1,.86-8.91,50.93,50.93,0,0,1,1.7-7.21,24,24,0,0,1,2.76-5.86,34.36,34.36,0,0,1,3.65-4.68,19.75,19.75,0,0,1,4.94-3.71,50.58,50.58,0,0,1,6.07-2.84,64.07,64.07,0,0,1,7.6-2.31q4.59-1.14,9.07-2c3-.57,7.4-1.29,11.65-1.94"/><polygon points="287.4 43.39 451.19 18.11 451.19 56.11 320.05 71.22 320.05 84.23 414.32 74.83 414.32 104.19 320.05 110.62 320.05 123.81 451.19 116.92 451.19 154.92 287.4 157.12 287.4 43.39"/><path d="M18,174l46,.52q1.41,0,2.69.14a22.69,22.69,0,0,1,3.61.81,18.1,18.1,0,0,1,4.27,1.84,20,20,0,0,1,4.15,3.55,22.07,22.07,0,0,1,3.76,5.64A36.68,36.68,0,0,1,85,194.78a57.24,57.24,0,0,1,1,11.35c0,13.45-3.24,22.73-9.63,27.75l13.1,26.76-20-3.16L59,236.71l-26.68-3.17v18.39L18,249.75Zm44.46,35.25c4.09.29,6.11.43,6.11-4.2s-2.11-4.6-6.39-4.84l-29.89-1.66v8.55Z"/><path d="M222.9,173.5a98.12,98.12,0,0,1,18.83,1.78,55.54,55.54,0,0,1,15.84,5.81,37.66,37.66,0,0,1,12.35,10.82,51.59,51.59,0,0,1,7.67,16.91,91.64,91.64,0,0,1,2.78,23.86,93.45,93.45,0,0,1-2.47,23,45.31,45.31,0,0,1-7,15.69,27.7,27.7,0,0,1-11.72,9.17A45.56,45.56,0,0,1,243.34,284a100,100,0,0,1-19.67-1.31c-17.68-2.73-30-9-37.49-18.89-7.33-9.64-10.94-23.41-10.94-41.46,0-16.72,3.69-29,11.19-36.85,7.66-8.06,19.67-12.09,36.48-12m1,81.14c7.82.91,14-.59,18.42-4.57S249,239.39,249,230.14c0-8.94-2.38-15.88-7.08-20.81s-10.81-7.44-18.4-7.78a27.44,27.44,0,0,0-10.26,1.26,16,16,0,0,0-7.12,4.8,21.18,21.18,0,0,0-4.1,7.92,38.59,38.59,0,0,0-1.34,10.7q0,11.68,5.7,19.3c3.85,5.16,9.64,8.2,17.45,9.11"/><path d="M127.44,172.78a64.71,64.71,0,0,1,14.22,1.53,38.27,38.27,0,0,1,11.89,5,29.72,29.72,0,0,1,9.22,9.33,47.8,47.8,0,0,1,5.71,14.57,90.94,90.94,0,0,1,2.07,20.57,93.53,93.53,0,0,1-1.83,19.9,43.28,43.28,0,0,1-5.21,13.65,22.18,22.18,0,0,1-8.75,8.12,30.86,30.86,0,0,1-11.89,3.24,65.2,65.2,0,0,1-14.85-.8c-13.43-2.07-22.85-7.39-28.59-15.91C93.8,243.64,91,231.59,91,215.72c0-14.69,2.84-25.47,8.6-32.41s15-10.62,27.82-10.53m.75,70.69c5.92.69,10.57-.7,13.9-4.21s5.06-9.35,5.06-17.37q0-11.62-5.32-18a20,20,0,0,0-21.68-5.51,12.4,12.4,0,0,0-5.42,4.23,19.79,19.79,0,0,0-3.13,6.95,38.63,38.63,0,0,0-1,9.37c0,6.81,1.44,12.4,4.35,16.81s7.33,7,13.26,7.73"/><polygon points="376.86 298.89 346.05 294.39 320.05 243.81 320.05 295.72 287.4 290.75 287.4 177.03 326.66 177.47 361.67 246.68 399.7 178.29 451.19 178.87 451.19 315.68 407.81 309.08 407.81 251.37 376.86 298.89"/><polygon points="647.11 114.61 582.91 81.15 621.69 175.39 647.11 114.61"/><polygon points="571.66 258.5 605.38 240.93 571.66 179.7 571.66 258.5"/><polygon points="461.93 18.11 461.93 315.68 491.88 300.08 491.88 33.71 461.93 18.11"/><polygon points="747.44 166.89 669.42 126.23 669.42 207.56 747.44 166.89"/><polygon points="633.06 226.5 651.84 216.72 651.84 174.23 633.06 226.5"/></svg>